<svg xmlns="http://www.w3.org/2000/svg" xmlns:xlink="http://www.w3.org/1999/xlink" width="2289.02" height="492.02" viewBox="0 0 2289.02 492.02">
  <defs>
    <linearGradient id="linear-gradient" x1="0.492" y1="0.958" x2="0.508" y2="0.061" gradientUnits="objectBoundingBox">
      <stop offset="0" stop-color="#2ca6ef"/>
      <stop offset="1" stop-color="#c6d9fa"/>
    </linearGradient>
    <linearGradient id="linear-gradient-2" x1="0.496" y1="0.945" x2="0.503" y2="0.144" gradientUnits="objectBoundingBox">
      <stop offset="0" stop-color="#78ffff"/>
      <stop offset="0.2" stop-color="#7af2ff"/>
      <stop offset="0.58" stop-color="#80ceff"/>
      <stop offset="1" stop-color="#889fff"/>
    </linearGradient>
    <linearGradient id="linear-gradient-3" x1="-0.371" y1="0.406" x2="1.173" y2="0.684" gradientUnits="objectBoundingBox">
      <stop offset="0" stop-color="#5ac6e2"/>
      <stop offset="1" stop-color="#a795e8"/>
    </linearGradient>
    <linearGradient id="linear-gradient-4" x1="0.844" y1="0.296" x2="0.184" y2="0.95" gradientUnits="objectBoundingBox">
      <stop offset="0" stop-color="#4ab8d1"/>
      <stop offset="1" stop-color="#8c7dd3"/>
    </linearGradient>
    <linearGradient id="linear-gradient-5" x1="0.714" y1="0.252" x2="0.333" y2="0.739" gradientUnits="objectBoundingBox">
      <stop offset="0" stop-color="#ffbd33"/>
      <stop offset="1" stop-color="#ff7b60"/>
    </linearGradient>
    <linearGradient id="linear-gradient-6" x1="0.367" y1="0.064" x2="0.615" y2="0.848" xlink:href="#linear-gradient-5"/>
    <linearGradient id="linear-gradient-7" x1="0.492" y1="0.804" x2="0.628" y2="0.221" gradientUnits="objectBoundingBox">
      <stop offset="0" stop-color="#2f5b9b"/>
      <stop offset="1" stop-color="#18386b"/>
    </linearGradient>
    <linearGradient id="linear-gradient-8" x1="0.804" y1="0.253" x2="0.275" y2="0.668" gradientUnits="objectBoundingBox">
      <stop offset="0" stop-color="#f9c0ca"/>
      <stop offset="1" stop-color="#fc99ba"/>
    </linearGradient>
    <linearGradient id="linear-gradient-9" x1="0.409" y1="0.118" x2="0.448" y2="0.463" gradientUnits="objectBoundingBox">
      <stop offset="0" stop-color="#f3feff"/>
      <stop offset="1" stop-color="#c5faff"/>
    </linearGradient>
    <linearGradient id="linear-gradient-10" x1="0.66" y1="0.484" x2="0.171" y2="0.52" xlink:href="#linear-gradient-7"/>
    <linearGradient id="linear-gradient-11" x1="0.594" y1="0.058" x2="0.462" y2="0.827" xlink:href="#linear-gradient-5"/>
    <linearGradient id="linear-gradient-12" x1="0.34" y1="0.091" x2="0.677" y2="0.879" xlink:href="#linear-gradient-5"/>
    <linearGradient id="linear-gradient-13" x1="1.088" y1="0.492" x2="0.09" y2="0.506" gradientUnits="objectBoundingBox">
      <stop offset="0" stop-color="#6e7ee4"/>
      <stop offset="1" stop-color="#4c30c0"/>
    </linearGradient>
    <linearGradient id="linear-gradient-14" x1="1.002" y1="0.377" x2="0.284" y2="0.548" xlink:href="#linear-gradient-13"/>
    <linearGradient id="linear-gradient-15" x1="-0.003" y1="0.498" x2="0.997" y2="0.498" xlink:href="#linear-gradient-7"/>
    <linearGradient id="linear-gradient-16" x1="-0.002" y1="0.5" x2="0.998" y2="0.5" xlink:href="#linear-gradient-7"/>
    <linearGradient id="linear-gradient-17" x1="0.239" y1="0.699" x2="0.937" y2="0.38" xlink:href="#linear-gradient-8"/>
    <linearGradient id="linear-gradient-18" x1="1.198" y1="0.302" x2="-0.113" y2="0.674" xlink:href="#linear-gradient-3"/>
    <linearGradient id="linear-gradient-19" x1="159.712" y1="245.602" x2="159.792" y2="246.281" gradientUnits="objectBoundingBox">
      <stop offset="0" stop-color="#989df4"/>
      <stop offset="1" stop-color="#7d7ddb"/>
    </linearGradient>
    <linearGradient id="linear-gradient-20" x1="0.599" y1="0.045" x2="0.434" y2="0.774" xlink:href="#linear-gradient-8"/>
    <linearGradient id="linear-gradient-21" x1="0.016" y1="0.479" x2="0.873" y2="0.505" xlink:href="#linear-gradient-7"/>
    <linearGradient id="linear-gradient-22" x1="0.045" y1="0.493" x2="0.645" y2="0.504" xlink:href="#linear-gradient-8"/>
    <linearGradient id="linear-gradient-23" x1="0.69" y1="0.237" x2="0.45" y2="0.712" xlink:href="#linear-gradient-7"/>
    <linearGradient id="linear-gradient-24" x1="0.879" y1="0.394" x2="0.232" y2="0.705" gradientUnits="objectBoundingBox">
      <stop offset="0" stop-color="#00afff"/>
      <stop offset="1" stop-color="#0057ff"/>
    </linearGradient>
    <linearGradient id="linear-gradient-25" x1="0.706" y1="0.234" x2="0.291" y2="0.857" xlink:href="#linear-gradient-24"/>
    <linearGradient id="linear-gradient-26" x1="0.749" y1="0.674" x2="0.23" y2="-0.03" xlink:href="#linear-gradient-8"/>
    <linearGradient id="linear-gradient-27" x1="0.475" y1="0.662" x2="0.554" y2="-0.129" xlink:href="#linear-gradient-8"/>
    <linearGradient id="linear-gradient-28" x1="1.137" y1="0.596" x2="-0.144" y2="0.349" xlink:href="#linear-gradient-8"/>
    <linearGradient id="linear-gradient-29" x1="0.922" y1="0.04" x2="0.229" y2="0.98" xlink:href="#linear-gradient-24"/>
    <linearGradient id="linear-gradient-30" x1="0.995" y1="0.143" x2="0.018" y2="0.848" gradientUnits="objectBoundingBox">
      <stop offset="0" stop-color="#88e9ff"/>
      <stop offset="1" stop-color="#34bfea"/>
    </linearGradient>
    <linearGradient id="linear-gradient-31" x1="0.241" y1="0.233" x2="0.728" y2="0.994" xlink:href="#linear-gradient-8"/>
    <linearGradient id="linear-gradient-32" x1="0.102" y1="0.804" x2="0.838" y2="0.401" xlink:href="#linear-gradient-8"/>
    <linearGradient id="linear-gradient-33" x1="1.12" y1="0.485" x2="-0.018" y2="0.529" xlink:href="#linear-gradient-8"/>
    <linearGradient id="linear-gradient-34" x1="0.334" y1="0.001" x2="0.563" y2="0.818" xlink:href="#linear-gradient-7"/>
    <linearGradient id="linear-gradient-35" x1="0.381" y1="0.472" x2="0.823" y2="0.632" xlink:href="#linear-gradient-7"/>
    <linearGradient id="linear-gradient-36" x1="0.533" y1="-0.102" x2="0.463" y2="0.83" xlink:href="#linear-gradient-24"/>
    <linearGradient id="linear-gradient-37" x1="0.846" y1="0.576" x2="0.104" y2="0.407" xlink:href="#linear-gradient-7"/>
    <linearGradient id="linear-gradient-38" x1="0.452" y1="-0.017" x2="0.517" y2="0.71" xlink:href="#linear-gradient-8"/>
    <linearGradient id="linear-gradient-39" y1="0.5" x2="1.001" y2="0.5" gradientUnits="objectBoundingBox">
      <stop offset="0" stop-color="#fff3f2"/>
      <stop offset="1" stop-color="#d5eaff"/>
    </linearGradient>
    <linearGradient id="linear-gradient-40" x1="0.678" y1="0.461" x2="0.15" y2="0.556" xlink:href="#linear-gradient-13"/>
    <radialGradient id="radial-gradient" cx="0.644" cy="0.428" r="0.467" gradientTransform="translate(-0.555) scale(2.11 1)" xlink:href="#linear-gradient-39"/>
    <linearGradient id="linear-gradient-41" x1="0.522" y1="0.07" x2="0.502" y2="0.687" xlink:href="#linear-gradient-13"/>
    <linearGradient id="linear-gradient-42" x1="0.622" y1="0.012" x2="0.294" y2="0.875" xlink:href="#linear-gradient-13"/>
    <linearGradient id="linear-gradient-43" x1="0.545" y1="0.493" x2="-0.157" y2="0.562" xlink:href="#linear-gradient-24"/>
    <linearGradient id="linear-gradient-44" x1="1.213" y1="0.425" x2="0.037" y2="0.545" xlink:href="#linear-gradient-24"/>
    <linearGradient id="linear-gradient-45" x1="0.277" y1="0.136" x2="0.865" y2="0.577" xlink:href="#linear-gradient-7"/>
    <linearGradient id="linear-gradient-46" x1="0.89" y1="0.244" x2="0.321" y2="0.588" xlink:href="#linear-gradient-7"/>
    <linearGradient id="linear-gradient-47" x1="1.08" y1="0.591" x2="0.115" y2="0.446" xlink:href="#linear-gradient-8"/>
    <linearGradient id="linear-gradient-48" x1="0.155" y1="0.495" x2="1.129" y2="0.513" xlink:href="#linear-gradient-8"/>
    <linearGradient id="linear-gradient-49" x1="0.125" y1="0.342" x2="0.926" y2="0.714" xlink:href="#linear-gradient-39"/>
    <linearGradient id="linear-gradient-50" x1="0.07" y1="0.419" x2="0.775" y2="0.561" xlink:href="#linear-gradient-13"/>
    <linearGradient id="linear-gradient-51" x1="1.019" y1="0.666" x2="0.168" y2="0.385" xlink:href="#linear-gradient-8"/>
    <linearGradient id="linear-gradient-52" x1="0.461" y1="-0.023" x2="0.516" y2="0.729" gradientUnits="objectBoundingBox">
      <stop offset="0" stop-color="#873c51"/>
      <stop offset="1" stop-color="#402649"/>
    </linearGradient>
    <linearGradient id="linear-gradient-53" x1="0.407" y1="0.398" x2="0.713" y2="0.765" gradientUnits="objectBoundingBox">
      <stop offset="0" stop-color="#6281f7"/>
      <stop offset="1" stop-color="#2c3bd1"/>
    </linearGradient>
    <linearGradient id="linear-gradient-54" x1="0.38" y1="0.32" x2="0.723" y2="0.851" xlink:href="#linear-gradient-53"/>
    <linearGradient id="linear-gradient-55" x1="0.357" y1="0.39" x2="0.716" y2="0.639" xlink:href="#linear-gradient-8"/>
    <linearGradient id="linear-gradient-56" x1="0.304" y1="0.335" x2="0.62" y2="0.571" xlink:href="#linear-gradient-8"/>
    <linearGradient id="linear-gradient-57" x1="-0.013" y1="0.787" x2="0.953" y2="0.196" xlink:href="#linear-gradient-53"/>
    <linearGradient id="linear-gradient-58" x1="0.37" y1="-0.095" x2="0.782" y2="1.041" xlink:href="#linear-gradient-8"/>
    <linearGradient id="linear-gradient-59" x1="0.289" y1="0.538" x2="0.97" y2="0.426" gradientUnits="objectBoundingBox">
      <stop offset="0" stop-color="#f46682"/>
      <stop offset="1" stop-color="#cc449c"/>
    </linearGradient>
    <linearGradient id="linear-gradient-60" x1="0.54" y1="0.184" x2="0.444" y2="1.004" xlink:href="#linear-gradient-24"/>
    <linearGradient id="linear-gradient-61" x1="-0.196" y1="0.153" x2="0.941" y2="0.8" xlink:href="#linear-gradient-59"/>
    <linearGradient id="linear-gradient-62" x1="0.592" y1="-0.001" x2="0.41" y2="0.936" xlink:href="#linear-gradient-59"/>
    <linearGradient id="linear-gradient-63" x1="0.169" y1="0.531" x2="0.935" y2="0.419" xlink:href="#linear-gradient-39"/>
    <linearGradient id="linear-gradient-64" x1="0.729" y1="0.663" x2="0.382" y2="0.195" xlink:href="#linear-gradient-39"/>
    <linearGradient id="linear-gradient-65" x1="-0.038" y1="0.633" x2="0.779" y2="0.462" xlink:href="#linear-gradient-8"/>
    <linearGradient id="linear-gradient-66" x1="-0.498" y1="0.328" x2="1.687" y2="0.663" xlink:href="#linear-gradient-59"/>
    <linearGradient id="linear-gradient-67" x1="3.003" y1="10.485" x2="3.032" y2="11.397" xlink:href="#linear-gradient-24"/>
    <linearGradient id="linear-gradient-68" x1="0.489" y1="0.826" x2="0.51" y2="0.201" xlink:href="#linear-gradient-24"/>
    <linearGradient id="linear-gradient-69" x1="0.502" y1="0.055" x2="0.5" y2="0.964" xlink:href="#linear-gradient-30"/>
    <linearGradient id="linear-gradient-70" x1="0.003" y1="0.499" x2="0.999" y2="0.499" xlink:href="#linear-gradient-8"/>
    <linearGradient id="linear-gradient-71" x1="0.114" y1="0.5" x2="0.783" y2="0.5" xlink:href="#linear-gradient-8"/>
    <linearGradient id="linear-gradient-72" x1="0.347" y1="0.203" x2="0.941" y2="0.843" xlink:href="#linear-gradient-52"/>
    <linearGradient id="linear-gradient-73" x1="0.428" y1="0.131" x2="0.557" y2="0.856" xlink:href="#linear-gradient-52"/>
    <linearGradient id="linear-gradient-74" x1="0.552" y1="0.991" x2="0.489" y2="0.337" xlink:href="#linear-gradient-52"/>
    <linearGradient id="linear-gradient-75" x1="0.278" y1="0.12" x2="0.761" y2="0.839" xlink:href="#linear-gradient-24"/>
    <linearGradient id="linear-gradient-76" x1="0.018" y1="0.504" x2="0.781" y2="0.495" xlink:href="#linear-gradient-8"/>
    <linearGradient id="linear-gradient-77" x1="-0.005" y1="0.472" x2="0.847" y2="0.524" xlink:href="#linear-gradient-8"/>
    <linearGradient id="linear-gradient-78" x1="-0.028" y1="0.454" x2="0.822" y2="0.539" xlink:href="#linear-gradient-8"/>
    <linearGradient id="linear-gradient-79" x1="-0.007" y1="0.337" x2="1.02" y2="0.709" xlink:href="#linear-gradient-8"/>
    <linearGradient id="linear-gradient-80" x1="0.369" y1="0.164" x2="0.576" y2="0.737" xlink:href="#linear-gradient-24"/>
    <linearGradient id="linear-gradient-81" x1="0.577" y1="0.754" x2="0.427" y2="0.259" xlink:href="#linear-gradient-24"/>
    <linearGradient id="linear-gradient-82" x1="0.429" y1="0.004" x2="0.545" y2="0.823" xlink:href="#linear-gradient-30"/>
    <linearGradient id="linear-gradient-83" x1="-45.661" y1="-146.628" x2="-45.34" y2="-147.053" xlink:href="#linear-gradient-8"/>
    <linearGradient id="linear-gradient-84" x1="-38.962" y1="-140.489" x2="-38.734" y2="-140.861" xlink:href="#linear-gradient-8"/>
    <linearGradient id="linear-gradient-85" x1="-41.193" y1="-148.142" x2="-41.027" y2="-148.482" xlink:href="#linear-gradient-8"/>
    <linearGradient id="linear-gradient-86" x1="-46.762" y1="-159.655" x2="-46.548" y2="-160.021" xlink:href="#linear-gradient-8"/>
    <linearGradient id="linear-gradient-87" x1="0.502" y1="0.171" x2="0.491" y2="1.804" gradientUnits="objectBoundingBox">
      <stop offset="0" stop-color="#49e3f2" stop-opacity="0"/>
      <stop offset="0.09" stop-color="#49dcf2" stop-opacity="0.051"/>
      <stop offset="0.27" stop-color="#4acbf3" stop-opacity="0.2"/>
      <stop offset="0.5" stop-color="#4baef5" stop-opacity="0.431"/>
      <stop offset="0.79" stop-color="#4d87f7" stop-opacity="0.749"/>
      <stop offset="1" stop-color="#4e67f9"/>
    </linearGradient>
    <linearGradient id="linear-gradient-88" x1="0.502" y1="0.235" x2="0.49" y2="1.868" xlink:href="#linear-gradient-87"/>
    <linearGradient id="linear-gradient-89" x1="0.502" y1="0.276" x2="0.49" y2="1.909" xlink:href="#linear-gradient-87"/>
    <linearGradient id="linear-gradient-90" x1="0.503" y1="0.148" x2="0.491" y2="1.782" xlink:href="#linear-gradient-87"/>
    <linearGradient id="linear-gradient-91" x1="0.502" y1="0.208" x2="0.49" y2="1.842" xlink:href="#linear-gradient-87"/>
    <linearGradient id="linear-gradient-92" x1="0.503" y1="0.153" x2="0.491" y2="1.786" xlink:href="#linear-gradient-87"/>
    <linearGradient id="linear-gradient-93" x1="0.502" y1="0.208" x2="0.49" y2="1.841" xlink:href="#linear-gradient-87"/>
    <linearGradient id="linear-gradient-94" x1="0.502" y1="0.197" x2="0.491" y2="1.83" xlink:href="#linear-gradient-87"/>
  </defs>
  <g id="_111" data-name="111" transform="translate(482.99 -955.93)">
    <path id="Path_2277" data-name="Path 2277" d="M1460,620c-1.15-1.38-2.75-.94-4.2-1-19.55-.46-38.95-2.6-58.37-4.84-43.82-5.06-86.83-14.12-129.46-25.21-20.87-5.43-41.49-11.71-62.08-18.12-47-14.64-94.46-27.6-142.6-38.06-25.38-5.51-50.86-10.42-76.49-14.52q-24-3.84-48.17-6.37-33.87-3.5-67.85-5.17c-18.48-.91-37-1.23-55.37-.5C775.73,507.82,736.24,512,697.8,523c-14.54,4.14-28.93,8.78-42.55,15.49L648,542c0-2.1,1.41-2.43,2.41-3.13,32.74-22.93,68.36-40.16,105.74-54.07a654.859,654.859,0,0,1,167.84-37c17.86-1.45,35.68-3,53.62-2.93,8.12,0,16.21-1.3,24.38-.93,16.91.76,33.87.82,50.73,2.17,22.57,1.8,45.15,4,67.58,7,29.65,4.07,59,9.68,88.24,16.36,21.91,5,44,9.33,66.41,11.6,12.86,1.3,25.72,2.16,38.6,3.09a374,374,0,0,0,38.88.59,561.712,561.712,0,0,0,64.25-5.64,583.6,583.6,0,0,0,102.71-24.86c37.09-12.61,72.43-29,106.6-48.18a686.852,686.852,0,0,0,81.5-53.49c15.8-12.07,31-24.88,45.84-38.19,11.28-10.13,21.21-21.59,32.7-31.46V516c-5.65,8.63-13.55,15.05-21.43,21.42-29.28,23.67-62.18,40.9-97.32,54.09-31.95,12-65,19.55-98.68,24.43a349.592,349.592,0,0,1-49.69,3.57c-1.94,0-4-.59-5.85.48Z" transform="translate(20 673)" fill="#2ca6ef"/>
    <path id="Path_2278" data-name="Path 2278" d="M-144,452c1.15,1.39,2.74,1,4.19,1,19.56.37,39,2.62,58.37,4.86,45,5.19,89.11,14.59,132.85,26.07,19.42,5.1,38.57,11.08,57.75,17,47.37,14.64,95.11,27.81,143.6,38.3,25.39,5.49,50.86,10.49,76.5,14.52,19.26,3,38.59,5.64,58,7.4,18.82,1.7,37.63,3,56.49,4.1s37.63,1.11,56.38.49,37.3-2.15,55.9-4.51a440.366,440.366,0,0,0,79.92-17.47,186.2,186.2,0,0,0,32.16-13.92c-.15,2.26-1.53,2.6-2.55,3.31a399,399,0,0,1-54.9,32.4A578.8,578.8,0,0,1,503.31,605a701.975,701.975,0,0,1-72.92,14.78c-16.66,2.52-33.47,4.16-50.31,5.41-15.25,1.13-30.57.86-45.74,2.13-17.86,1.49-35.56-.18-53.27-.65-21.78-.58-43.55-2.93-65.26-5.48a1055.008,1055.008,0,0,1-108.44-18.8c-21.94-4.93-44-9.37-66.44-11.52Q21.63,589,2.31,587.72c-11.66-.78-23.28-.86-34.89-.62a547.73,547.73,0,0,0-67.75,5.65A579.261,579.261,0,0,0-204,617.85c-34.4,11.7-67.27,26.84-99.18,44.15a686.5,686.5,0,0,0-88.44,57.44c-15.83,12-31,24.9-45.83,38.22-12.27,11-23.07,23.51-35.54,34.29V559c4.81-7.54,11.51-13.39,18.15-19.12,30.75-26.58,66-45.35,104-59.48,35.94-13.39,73.11-21.49,111.17-25.88,12.42-1.44,24.87-1.78,37.34-2,1.78,0,3.65.56,5.35-.49Z" transform="translate(-10 656)" fill="#2ca6ef"/>
    <g id="Group_550" data-name="Group 550" transform="translate(88 801)">
      <circle id="Ellipse_25" data-name="Ellipse 25" cx="156" cy="156" r="156" transform="translate(383.58 198.46)" opacity="0.5" fill="url(#linear-gradient)"/>
      <circle id="Ellipse_26" data-name="Ellipse 26" cx="57.178" cy="57.178" r="57.178" transform="translate(714.059 379.032)" opacity="0.3" fill="url(#linear-gradient-2)"/>
      <path id="Path_2279" data-name="Path 2279" d="M545.47,239.561l.19,261.826c-.19,3.888,7.587,7.348,13.342,5.511L663.971,286.874l-104.412-56.26-.729-1.225S545.464,230.792,545.47,239.561Z" transform="translate(-62.762 -11.991)" fill="#6e69c9"/>
      <path id="Path_2280" data-name="Path 2280" d="M682.759,471.949l-116.279,34.8a2.225,2.225,0,0,1-3.1-2.143l-.2-268.6c0-4.9,1.4-7.054,3.1-6.546l116.34,34.663a2.942,2.942,0,0,1,1.727,2.792l.11,202.248A2.943,2.943,0,0,1,682.759,471.949Z" transform="translate(-69.628 -11.988)" fill="url(#linear-gradient-3)"/>
      <path id="Path_2281" data-name="Path 2281" d="M685.218,456.75c0,1.751-1.1,3.417-2.449,3.711l-5.113,1.121-20.115,4.427-11.7,2.547-9.093,2-39.8,8.732-8.805,1.929a3.153,3.153,0,0,1-4-3.2l-.049-65.75-.1-142.057a3.036,3.036,0,0,1,4-3.062l94.682,24.235a3.926,3.926,0,0,1,2.449,3.8v24.376Z" transform="translate(-77.696 -26.577)" fill="#fff"/>
      <path id="Path_2282" data-name="Path 2282" d="M681.946,615.094l-54.6,14.806a2.578,2.578,0,0,1-3.355-2.7v-2.351a4.758,4.758,0,0,1,3.349-4.445l54.6-13.593c1.39-.349,2.517.765,2.517,2.449v2.021A3.983,3.983,0,0,1,681.946,615.094Z" transform="translate(-93.203 -158.286)" fill="#dcf2f9"/>
      <path id="Path_2283" data-name="Path 2283" d="M683.379,278.151l-56.725-15.467a1.433,1.433,0,0,1-.986-1.323v-1.108a.747.747,0,0,1,.98-.778l56.725,15.92a1.182,1.182,0,0,1,.735,1.121v.955C684.114,277.943,683.783,278.262,683.379,278.151Z" transform="translate(-93.852 -23.64)" fill="#dcf2f9"/>
      <path id="Path_2284" data-name="Path 2284" d="M608.941,256.112a1.365,1.365,0,0,1-1.837,1.4,2.633,2.633,0,0,1-1.837-2.413,1.366,1.366,0,0,1,1.837-1.4A2.639,2.639,0,0,1,608.941,256.112Z" transform="translate(-85.942 -21.385)" fill="#dcf2f9"/>
      <path id="Path_2285" data-name="Path 2285" d="M596.84,251.98a2.553,2.553,0,0,1-3.4,2.584A4.9,4.9,0,0,1,590,250.088a2.556,2.556,0,0,1,3.453-2.572A4.9,4.9,0,0,1,596.84,251.98Z" transform="translate(-80.026 -18.967)" fill="#dcf2f9"/>
      <path id="Path_2286" data-name="Path 2286" d="M664.37,404.838c-16.373,27.279-10.085,62.989-6.735,76.576L645.9,483.98l-9.093,2-39.8,8.732-8.805,1.929a3.153,3.153,0,0,1-4-3.2l-.049-65.75c9.644-27.738,34.424-48.985,63.332-61.7,34.608-15.2,35.269-59.18,35.269-59.18a3.926,3.926,0,0,1,2.449,3.8v24.376C683.768,351.983,679.151,380.211,664.37,404.838Z" transform="translate(-77.758 -42.002)" fill="url(#linear-gradient-4)"/>
      <path id="Path_2287" data-name="Path 2287" d="M1052.694,675.8s1.978,4.7,4.9,6.821,7.158,5.388,7.09,6.613-9.068,2.59-12-1.5a45.277,45.277,0,0,1-3.545-5.388l-.612,1.91s-3.478-.545-3.545-2.247,1.635-6.68,1.837-7.911a19.366,19.366,0,0,0,5.878,1.7Z" transform="translate(-256.413 -184.398)" fill="url(#linear-gradient-5)"/>
      <path id="Path_2288" data-name="Path 2288" d="M979.789,669.5s.582,5.419-.582,7.348l-2.933.888-.716-2.486a31.836,31.836,0,0,1-1.365,3.374c-.2.135-9.693,2.535-12.479,2.082-2.088-.343-4.225-3.3,1.139-5.474,9.362-3.8,10.728-6.319,11.138-7C976.109,668.616,979.789,669.5,979.789,669.5Z" transform="translate(-223.266 -182.122)" fill="url(#linear-gradient-6)"/>
      <path id="Path_2289" data-name="Path 2289" d="M1032.854,498.811s-1.127,17.794-2,56.254c-.717,31.742-1.61,47.461-1.9,51.979a1.457,1.457,0,0,1-1.549,1.366c-1.953-.129-5.241-.612-5.8-2.309-.82-2.449-1.635-27.922-6.7-48.324-1.108-4.476-2.039-8.162-2.8-11.187-.87-3.429-1.543-6.013-2.051-7.96-8.027,11.714-18.516,57.435-20.666,64.489-2.964,1.941-8.236-1.023-8.236-1.023s.919-20.409,4.9-52.469,9.8-52.316,9.8-52.316l8.334,2.5c3.239-1.8,10.495-.551,13.257,0l6.472-3.135Z" transform="translate(-231.668 -115.615)" fill="url(#linear-gradient-7)"/>
      <path id="Path_2290" data-name="Path 2290" d="M1123.629,506.61s1.892,1.127,7.311.257,6.65-.8,7.158.037-3.527,2.419-5.168,2.419.765,1.586,4.856,3.888,3.019,3.478.765,3.172c0,0,.257,1.69-1.739.918,0,0,0,1.1-1.739.484,0,0,.129,1.041-2.045.422s-5.15-1.225-7.434-3.478a35.921,35.921,0,0,0-5.284-4.194Z" transform="translate(-285.618 -119.324)" fill="url(#linear-gradient-8)"/>
      <path id="Path_2291" data-name="Path 2291" d="M1024.746,410.521l5.18-4.8,7.348,2.939s11.205,36.041,10.164,54.888a43.352,43.352,0,0,1-28.638,1.023l2.149-47.454Z" transform="translate(-246.265 -80.351)" fill="url(#linear-gradient-9)"/>
      <path id="Path_2292" data-name="Path 2292" d="M1100.833,466.84a6.374,6.374,0,0,1-5.419,4.758c-13.875-6.895-22.356-15.069-27.205-21.113a41.486,41.486,0,0,1-5.627-8.7l-1.145-6.031L1057.83,404.2a21.265,21.265,0,0,1,6.086,2.6c3.478,2.351,6.65,11.708,14.934,31.5S1100.833,466.84,1100.833,466.84Z" transform="translate(-261.396 -79.762)" fill="url(#linear-gradient-10)"/>
      <path id="Path_2293" data-name="Path 2293" d="M1068.209,450.485a41.486,41.486,0,0,1-5.627-8.7l-1.145-6.031L1057.83,404.2s5.474,3.625,6.5,10.073C1065.233,420,1066.384,441.239,1068.209,450.485Z" transform="translate(-261.396 -79.762)" fill="#102c54"/>
      <path id="Path_2294" data-name="Path 2294" d="M1017.664,406.995s6.889,22.809,1.91,42.446-10.5,27.971-5.59,35.667c0,0-14.316-4.525-18.2-14.163a69.71,69.71,0,0,0,5.933-31.118c-.612-18.2-2.045-29.593.2-31.773s11.114-3.894,11.114-3.894Z" transform="translate(-237.34 -79.747)" fill="url(#linear-gradient-11)"/>
      <path id="Path_2295" data-name="Path 2295" d="M1045.106,399.49s5.59,1.727,7.434,3.809,4.758,14.31,5.064,37.78,2.608,28.84,2.915,32.373-12.479,11.634-12.479,11.634,2.192-1.463,2.774-13.661c.612-13.171-.729-33.39-3.8-45.709s-5.6-18.057-5.6-18.057l.478-4.384Z" transform="translate(-255.034 -77.936)" fill="url(#linear-gradient-12)"/>
      <path id="Path_2296" data-name="Path 2296" d="M1035.389,411.964s3.184,6.068,2.823,30.31-7.752,33.733-7.752,33.733l11.7,11.836s7.213-9.687,7.825-14.138c0,0,.153-29.1-5.37-43.009s-7.3-19.435-7.3-19.435Z" transform="translate(-250.785 -82.499)" fill="url(#linear-gradient-13)"/>
      <path id="Path_2297" data-name="Path 2297" d="M1034.64,408.245s1.365,2.112,2.523,2.247,2.657-.343,2.113-3a4.359,4.359,0,0,0-3.208-1.782Z" transform="translate(-252.406 -80.348)" fill="url(#linear-gradient-14)"/>
      <path id="Path_2298" data-name="Path 2298" d="M1037,402.661l4.433,2.939,1.978-6.736a1.88,1.88,0,0,0-2.645-.747l-3.429,1.837Z" transform="translate(-253.321 -77.299)" fill="url(#linear-gradient-15)"/>
      <path id="Path_2299" data-name="Path 2299" d="M1031.952,403.341l-1.059,4.782-6.913-5.737s.441-2.308,2.333-2.786a27.361,27.361,0,0,1,5.639,3.741Z" transform="translate(-248.273 -77.979)" fill="url(#linear-gradient-16)"/>
      <path id="Path_2300" data-name="Path 2300" d="M1037.008,393.282s-3.674,5.064-4.433,4.96-4.9-3.221-4.978-4.145c0-.325-.055-.931-.1-1.574-.073-1.17-.159-2.449-.159-2.449l9.356-4.654.184,4.672Z" transform="translate(-249.575 -72.481)" fill="url(#linear-gradient-17)"/>
      <path id="Path_2301" data-name="Path 2301" d="M1036.88,390.054,1027.5,392.5c-.073-1.17-.159-2.449-.159-2.449l9.356-4.654Z" transform="translate(-249.576 -72.474)" fill="#f28cb3"/>
      <rect id="Rectangle_151" data-name="Rectangle 151" width="25.607" height="39.145" rx="12.804" transform="matrix(0.844, 0.536, -0.536, 0.844, 776.643, 348.103)" fill="url(#linear-gradient-18)"/>
      <rect id="Rectangle_152" data-name="Rectangle 152" width="22.85" height="36.37" rx="11.425" transform="matrix(0.841, 0.541, -0.541, 0.841, 773.436, 351.229)" fill="#fff"/>
      <rect id="Rectangle_153" data-name="Rectangle 153" width="18.57" height="4.886" rx="2.443" transform="matrix(0.841, 0.541, -0.541, 0.841, 759.281, 377.254)" fill="#dcf2f9"/>
      <path id="Path_2302" data-name="Path 2302" d="M1043.433,453.55l-2.553-1.623.808-1.274a1.322,1.322,0,0,0-.41-1.837h0a1.323,1.323,0,0,0-1.837.41l-.808,1.274-2.553-1.623a1.506,1.506,0,0,0-2.082.465l-.778,1.225,4.947,3.141,4.948,3.141.778-1.225A1.506,1.506,0,0,0,1043.433,453.55Z" transform="translate(-251.855 -96.978)" fill="url(#linear-gradient-19)"/>
      <circle id="Ellipse_27" data-name="Ellipse 27" cx="0.765" cy="0.765" r="0.765" transform="matrix(0.536, -0.844, 0.844, 0.536, 787.605, 353.265)" fill="#fff"/>
      <rect id="Rectangle_154" data-name="Rectangle 154" width="0.649" height="16.269" transform="matrix(0.536, -0.844, 0.844, 0.536, 776.93, 356.323)" fill="#dcf2f9"/>
      <rect id="Rectangle_155" data-name="Rectangle 155" width="0.649" height="16.269" transform="matrix(0.536, -0.844, 0.844, 0.536, 774.733, 359.774)" fill="#dcf2f9"/>
      <rect id="Rectangle_156" data-name="Rectangle 156" width="0.648" height="16.246" transform="matrix(0.541, -0.841, 0.841, 0.541, 773.822, 366.945)" fill="#dcf2f9"/>
      <rect id="Rectangle_157" data-name="Rectangle 157" width="0.649" height="16.269" transform="matrix(0.536, -0.844, 0.844, 0.536, 770.347, 366.69)" fill="#dcf2f9"/>
      <rect id="Rectangle_158" data-name="Rectangle 158" width="0.649" height="16.269" transform="matrix(0.536, -0.844, 0.844, 0.536, 768.152, 370.149)" fill="#dcf2f9"/>
      <rect id="Rectangle_159" data-name="Rectangle 159" width="0.649" height="16.269" transform="matrix(0.536, -0.844, 0.844, 0.536, 765.954, 373.6)" fill="#dcf2f9"/>
      <path id="Path_2303" data-name="Path 2303" d="M1023.889,493.194s3.674-1.023,5.113-.82.612,1.28.612,1.28,5.064.514,5.572,1.329-.3,1.586-1.224,1.329c0,0,1.059,1.329-.472,1.672,0,0,.306,1.384-.986,1.225,0,0,.276,1.157-1.059.986s-6.613-1.261-9.185-3.674C1023.6,493.653,1023.889,493.194,1023.889,493.194Z" transform="translate(-247.606 -113.935)" fill="url(#linear-gradient-20)"/>
      <path id="Path_2304" data-name="Path 2304" d="M994.993,411.284c3.276.239,11.15,10.226,6.344,19.227s-7.838,12.987-6.319,14.83,10.207,9.613,12.969,16.465c0,0-1.225,4.09-2.811,4.09s-14.163-6.123-20.708-11.352-5.419-7.96-3.276-15.694S988.16,410.782,994.993,411.284Z" transform="translate(-231.036 -82.505)" fill="url(#linear-gradient-21)"/>
      <path id="Path_2305" data-name="Path 2305" d="M1021.015,368.283s-1.7,1.91-1.433,8.8-.478,9.681,5.321,7.568a30.075,30.075,0,0,0,9.068-5.045l3.747-1.5,1.837-3.747-5.646-6.827Z" transform="translate(-246.556 -65.546)" fill="url(#linear-gradient-22)"/>
      <path id="Path_2306" data-name="Path 2306" d="M1026.953,363.381s2.18-6.2,4.5-4.978.747,5.388-1.91,6.613c0,0,3.135,1.365,6.546-2.045s1.3-6.068-.41-7.5-1.224-3.613-.067-5.725.343-6-4.433-4.978-9.889-2.113-9.411-6.956,5.045-7.77,5.045-7.77-10.581-1.745-16.226,7.74c-5.284,8.879-1.433,17.488,5.8,18.308a21.436,21.436,0,0,0,9.858-.827.753.753,0,0,1,1.016.655,32.76,32.76,0,0,1-.306,7.464Z" transform="translate(-242.128 -50.963)" fill="url(#linear-gradient-23)"/>
      <path id="Path_2307" data-name="Path 2307" d="M1036.349,544.77l-5.958,20.464c-.87-3.429-1.543-6.013-2.051-7.96Z" transform="translate(-249.963 -134.259)" fill="#102c54"/>
      <path id="Path_2308" data-name="Path 2308" d="M444.889,648.572l1.127,1.127s4.194,2.829,4.286,4.6-7.5,1.023-10.367.478-3.343-3.343-3.674-6.2a14.335,14.335,0,0,0-2.247-5.591l-3.784,3.4-1.91-2.657s3.343-1.837,4.023-4.843,4.225-5.18,6.307-4.329c2.351,2.694,2.762,7.4,2.762,7.4Z" transform="translate(-17.345 -168.998)" fill="url(#linear-gradient-24)"/>
      <path id="Path_2309" data-name="Path 2309" d="M484.135,648.65s-2.933.478-3.062,5.591,0,9.068,0,9.068h3.062v-4.7s3.062,2.18,3.956,4.225,3.325,2.566,7.366,2.566,9,.067,6.68-3.2a18.506,18.506,0,0,0-6.478-5.18l-4.77-2.388Z" transform="translate(-37.775 -174.531)" fill="url(#linear-gradient-25)"/>
      <path id="Path_2310" data-name="Path 2310" d="M496.314,555.42a85.87,85.87,0,0,1-1.7,22.552c-2.6,13.042-5.064,33.6-2.762,37.59a22.423,22.423,0,0,0,3.851,5.333s-3.888,2.523-7.158-1.635-5.59-3.956-4.843-7.3.465-19.674-.141-31.84a208.758,208.758,0,0,0-2.449-22.7Z" transform="translate(-37.811 -138.388)" fill="url(#linear-gradient-26)"/>
      <path id="Path_2311" data-name="Path 2311" d="M467.307,556.51s1.837,3.172-3.276,17.488-12.375,31.093-12.785,36.923.918,8.572.918,8.572-3.276.82-4.9-4.09-4.286-9.105-2.449-11.022c2.149-4.09,4.4-10.226,4.4-20.151s.41-22.4,3.888-26.078C460.455,557.122,467.307,556.51,467.307,556.51Z" transform="translate(-23.499 -138.81)" fill="url(#linear-gradient-27)"/>
      <path id="Path_2312" data-name="Path 2312" d="M498.635,434.91s-.918,18.614,3.276,30.071,8.083,23.525,6.546,25.57-1.91-6.344-3.411-6.123-1.194,3.986-2.113,3.062-.918-4.4-.514-6.123-5.621-8.921-5.621-8.921l-3.478-17.488,2.045-11.022Z" transform="translate(-42.544 -91.668)" fill="url(#linear-gradient-28)"/>
      <path id="Path_2313" data-name="Path 2313" d="M450.394,390.029s2.284-2.755,7.96-3.7l8.456-2.8s6.123,1.5,11.591,10.091,6,13.159,2.8,20.727-6,18.37-4.9,25.981,7.348,32.049,8.9,39.188a29.661,29.661,0,0,1,0,12.785s-6.852-4.9-17.592,0a25.574,25.574,0,0,1-20.555,0s3.172-4.09-.82-21.376-2.247-28.228,0-35.08-.355-15.528-.355-15.528C444.222,409.1,450.394,390.029,450.394,390.029Z" transform="translate(-23.364 -71.745)" fill="url(#linear-gradient-29)"/>
      <rect id="Rectangle_160" data-name="Rectangle 160" width="21.48" height="32.489" rx="10.74" transform="translate(435.35 336.536) rotate(23.02)" fill="url(#linear-gradient-30)"/>
      <rect id="Rectangle_161" data-name="Rectangle 161" width="7.378" height="11.163" rx="3.689" transform="translate(437.665 349.109) rotate(23.02)" fill="#fff"/>
      <path id="Path_2314" data-name="Path 2314" d="M475.97,372.871l.171.876-.171,5.046s5.511,7.3,6.068,9.344-5.511,3.478-7.96.478-5.039-6.252-6.558-7.011l2.743-10.262Z" transform="translate(-32.542 -67.023)" fill="url(#linear-gradient-31)"/>
      <path id="Path_2315" data-name="Path 2315" d="M457.233,437.974c-.87-.821-13.961-1.941-18.155-2.449s-11.928-.563-10.55-8.542c.882-5.107,7.648-21.676,12.032-29.7,2.449-4.507,3.833-3.239,3.833-3.239s11.352,9.154,3.221,20.66l-6.919,9.8a1.6,1.6,0,0,0,.759,2.449c3.962,1.445,12.773,4.629,15.828,5.572,3.986,1.225,6.239-1.739,7.348-1.127s.41,2.559.41,2.559l1.488.306a.79.79,0,0,1,.612.98c-.122.465-.312.778-1.139.778a1.225,1.225,0,0,1,.441,1.3.778.778,0,0,1-1,.5s.649.68.355,1.31a.839.839,0,0,1-.918.5.776.776,0,0,1-.459,1.09C463.582,441.133,458.1,438.794,457.233,437.974Z" transform="translate(-17.362 -75.762)" fill="url(#linear-gradient-32)"/>
      <path id="Path_2316" data-name="Path 2316" d="M470.52,360.2l6.784,2.247,4.537,1.568,2.933-4.837V343.835l-4.635-1.635-8.119,11.867Z" transform="translate(-33.705 -55.726)" fill="url(#linear-gradient-33)"/>
      <path id="Path_2317" data-name="Path 2317" d="M460.42,359.467l.171-5.046s3.374,1.837,4.5-3.582,1.837-13.471-.974-14.983a80.644,80.644,0,0,0-7.244,11.022c-2.572,5.113-2.725,6.65-3.062,11.1s3.227,22.245-6.239,26.642c-5.725,2.657-15.1-.263-18.106-4.6-2.259-3.27-2.657-10.844-1.194-15.651,2.872-9.411,7.74-11.456,10.654-22.809s6.46-19.772,13.893-20.047,9.889,4.843,12.859,5.18,6.123.955,6.68,4.366-3.821,7.77-2.112,17.316c1.225,6.736,6.442,10.042,5,16.208-1.053,4.5-4.182,3.674-4.182,3.674S466.96,361.7,460.42,359.467Z" transform="translate(-16.993 -47.698)" fill="url(#linear-gradient-34)"/>
      <path id="Path_2318" data-name="Path 2318" d="M588.35,563.277c.318-1.745,29.789-23.409,39.966-54.894A65.769,65.769,0,0,0,631.1,478.6l26.544,1.947s2.853,4.286.863,20.053c-.7,5.511-5.076,14.236-11.732,23.733-1.91,2.731-4.017,5.511-6.276,8.34a165.884,165.884,0,0,1-24.572,24.836l-26.115,5.725A3.436,3.436,0,0,1,588.35,563.277Z" transform="translate(-79.386 -108.606)" fill="url(#linear-gradient-35)"/>
      <path id="Path_2319" data-name="Path 2319" d="M672.075,543.2c-1.91,2.731-4.017,5.511-6.276,8.34-2.706-9.57-12.179-24.3-12.179-24.3l16.484,8.474Z" transform="translate(-104.69 -127.463)" fill="#18386b"/>
      <path id="Path_2320" data-name="Path 2320" d="M763.14,652.49a14.4,14.4,0,0,0,9.344,3.276c5.866,0,7.348-.2,8.113.82s-1.776,3.478-7.844,5.113-8.677,1.512-8.677,1.512l-2.529-1.721v2.247s-4.09,1.568-4.7,1.225-3.411-8.181-1.874-10.33C756.527,653.653,763.14,652.49,763.14,652.49Z" transform="translate(-143.806 -176.02)" fill="url(#linear-gradient-36)"/>
      <path id="Path_2321" data-name="Path 2321" d="M665.553,479.937s14.99,19.227,34.008,52.365,20.819,51.955,20.819,51.955-5.707,3.374-9.081,1.739c0,0-13.293-27.72-27.873-43.983s-31.6-30.071-38.662-40.192,1.072-26.391,1.072-26.391l5.982,1.935Z" transform="translate(-100.14 -107.377)" fill="url(#linear-gradient-37)"/>
      <path id="Path_2322" data-name="Path 2322" d="M787.391,477.876s.918.612,4.549,0,6.448-1.69,8.1-.814-.49,1.714-.49,1.714-8.842,4.776-10.324,5.211-3.778-.612-3.778-.612Z" transform="translate(-155.799 -107.881)" fill="url(#linear-gradient-38)"/>
      <path id="Path_2323" data-name="Path 2323" d="M783.472,475.44s2.866,1.225,3.062,2.18-2.223,5.762-2.713,5.866-3.251-1.433-3.251-1.433Z" transform="translate(-153.907 -107.381)" fill="url(#linear-gradient-39)"/>
      <path id="Path_2324" data-name="Path 2324" d="M697.89,393.4s7.433-.1,16.771,13.685c10.618,15.669,22.154,29.93,36.9,35.618a.906.906,0,0,1,.533,1.139c-.692,2.057-2.59,7.207-4.231,7.207-2.045,0-27.021-4.654-44.962-26.544l-2.186-8.9Z" transform="translate(-121.853 -75.575)" fill="url(#linear-gradient-40)"/>
      <path id="Path_2325" data-name="Path 2325" d="M678.771,447.832s-13.244,1.519-20.611-3.484c2.149-10.679,10.893-54.1,10.893-54.1l4.9,3.852,2.272-.612,2.774.8,3.931,2.584,2.627,21.927Z" transform="translate(-106.45 -74.354)" fill="url(#radial-gradient)"/>
      <path id="Path_2326" data-name="Path 2326" d="M693.837,391s5.009,1.365,6.044,19.925c.87,15.675,1.01,28.779-.263,34.418a3.166,3.166,0,0,1-2.927,2.449l-5.548.3a69.149,69.149,0,0,1,.471-26.593c3.166-13.808,2.835-20.7,1.335-24.376l-.067-3.747Z" transform="translate(-118.823 -74.645)" fill="url(#linear-gradient-41)"/>
      <path id="Path_2327" data-name="Path 2327" d="M661.691,390.25a34.37,34.37,0,0,1,1.329,20.868c-2.86,11.818-11.3,31.448-10.532,41.882s1.69,10.74,1.69,10.74-14.7-6.086-15.087-10.893c1.537-6.344,5.113-16.961,4.041-33.567s-2-20.335.974-21.872S659.364,390.354,661.691,390.25Z" transform="translate(-99.057 -74.354)" fill="url(#linear-gradient-42)"/>
      <path id="Path_2328" data-name="Path 2328" d="M688.889,404.94s2.762,3.827,4.807,17.231,7.96,29.287,16.875,33.677c0,0-3.888,8.677-3.374,14.506,0,0-8.285-5.511-15.136-7.158,0,0-6.956-15.853-5.829-31.093a203.5,203.5,0,0,0,.337-26.434A2.143,2.143,0,0,1,688.889,404.94Z" transform="translate(-117.285 -80.012)" fill="url(#linear-gradient-43)"/>
      <path id="Path_2329" data-name="Path 2329" d="M689.332,398.6s-.514,3.276-1.261,3.441-2.112.612-2.694-.374a27.263,27.263,0,0,1-1.4-3.306l2.272-2.847Z" transform="translate(-116.46 -76.393)" fill="url(#linear-gradient-44)"/>
      <path id="Path_2330" data-name="Path 2330" d="M687.68,392.779l4.286,5.113,1.672-6.827a2.1,2.1,0,0,0-1-2.345,2.253,2.253,0,0,0-1.88-.092C688.886,389.558,687.68,392.779,687.68,392.779Z" transform="translate(-117.895 -73.662)" fill="url(#linear-gradient-45)"/>
      <path id="Path_2331" data-name="Path 2331" d="M682.744,392.157l-2.253,5.811s-4.77-5.578-5.431-7.832,1.837-3.276,1.837-3.276l4.856,3.784Z" transform="translate(-112.959 -73.04)" fill="url(#linear-gradient-46)"/>
      <path id="Path_2332" data-name="Path 2332" d="M686.765,380.8l.508,3.319a2.063,2.063,0,0,1-.484,1.665c-.808.925-2.18,2.37-2.817,2.272-1.708-.257-5.952-3.527-5.854-5.266a16.816,16.816,0,0,1,1.225-4.347l1.69-2.149Z" transform="translate(-114.187 -68.942)" fill="url(#linear-gradient-47)"/>
      <path id="Path_2333" data-name="Path 2333" d="M616.008,513.429a7.618,7.618,0,0,0-.374,4.158c.514,1.978.135,2.9-.373,2.829s-.869-.747-.869-.747a5.889,5.889,0,0,0-.735,3.1c.171,1.537.784,3.674-.374,4.09s-2.357-3-2.921-5.8a11.81,11.81,0,0,1,1.28-9.185C613.179,512.3,616.008,513.429,616.008,513.429Z" transform="translate(-87.768 -121.508)" fill="url(#linear-gradient-48)"/>
      <path id="Path_2334" data-name="Path 2334" d="M618.6,508.379s-.649,3.888-1.225,3.747-6.411-2.149-6.442-2.933a16.16,16.16,0,0,1,.986-3.374Z" transform="translate(-88.14 -119.159)" fill="url(#linear-gradient-49)"/>
      <path id="Path_2335" data-name="Path 2335" d="M632.267,402.75s8.383,3.062,8.187,16.171-14.512,28.84-17.476,37.639c-2.125,6.35-3.141,10.024-3.57,11.591a.931.931,0,0,1-1.133.667c-2.3-.612-8.089-2.266-7.678-4.072,1.329-3.062,3.478-21.786,8.9-37.964S629.095,402.738,632.267,402.75Z" transform="translate(-88.003 -79.2)" fill="url(#linear-gradient-50)"/>
      <path id="Path_2336" data-name="Path 2336" d="M696.858,362.182s-1.347,13.349-4.519,14.114-12.05-6.2-12.05-6.2l-1.757-.82-1.072-5.554,6.393-6.288Z" transform="translate(-113.933 -61.63)" fill="url(#linear-gradient-51)"/>
      <path id="Path_2337" data-name="Path 2337" d="M680.323,355.727s1.3-4.9,1.194-7.311a21.729,21.729,0,0,0,20.286,2.811c11.456-4.3,9.889-17.592,3.613-20.249s-10.771,2.247-11.524,7.225-7.225,4.978-10.226,1.91-7.911-.41-7.844,3.674-1.568,3.888-3.674,3.888-4.611,5.6-.41,9.889c3.888,3.968,3.986,3.674,3.986,3.674l1.384-1.788s-2.48-2.9-.533-5.156C678.688,351.838,680.323,355.727,680.323,355.727Z" transform="translate(-110.832 -51.085)" fill="url(#linear-gradient-52)"/>
      <path id="Path_2338" data-name="Path 2338" d="M853.074,651.74s2.045.869,1.635,4.452-.459,9.05-.459,9.05h-2.866a5.135,5.135,0,0,0-.765-3.784s-3.374,4.139-7.617,5.829-10.532.514-7.96-1.69a49.378,49.378,0,0,1,4.856-3.674l3.172-1.176S852.614,651.985,853.074,651.74Z" transform="translate(-174.792 -175.729)" fill="url(#linear-gradient-53)"/>
      <path id="Path_2339" data-name="Path 2339" d="M867.785,672.361l-2.247.355s-4.6,3.172-5.009,4.807,6.344,2.094,9.105,1.127,6.19-5.419,6.19-5.419v5.927h2.449s-.153-5.413.765-7.207,2.5-6.393,0-8.181c-2.811.612-5.627,5.321-5.627,5.321Z" transform="translate(-184.899 -180.393)" fill="url(#linear-gradient-54)"/>
      <path id="Path_2340" data-name="Path 2340" d="M876.594,659a14.39,14.39,0,0,1-3.784,7.96,39.149,39.149,0,0,1-4.09,3.888,4.925,4.925,0,0,0,6.344-.257c3.123-2.817,7.158-8.695,7.158-8.695l-.514-2.5Z" transform="translate(-188.081 -178.544)" fill="url(#linear-gradient-55)"/>
      <path id="Path_2341" data-name="Path 2341" d="M855.858,655.17a55.087,55.087,0,0,0-4.7,5.321c-2,2.658-5.572,3.631-7.825,2.762,0,0,5.878-5.168,7.213-8.083a34.433,34.433,0,0,0,5.315,0Z" transform="translate(-178.238 -177.059)" fill="url(#linear-gradient-56)"/>
      <path id="Path_2342" data-name="Path 2342" d="M880.169,526.839A148.786,148.786,0,0,1,878,542.147c-.423,2.131-.87,4.109-1.335,5.884-.692,2.645-1.365,5.884-2,9.362-2.119,11.634-3.778,25.932-4.194,29.624a1.016,1.016,0,0,1-.729.863h0a1,1,0,0,1-.282.037h-4.9a.964.964,0,0,1-.227,0,1.01,1.01,0,0,1-.784-.937c-.214-4.1-1.072-20.537-1.739-34.786-.533-11.469-1.892-18.9-2.039-26.33h0c-.061-3.19-.147-11.989-.147-11.989-.055.1-1.084,2.768-2.37,6.478-2.2,6.38-5.168,15.816-5.266,20.47-.129,6.178,2.076,33.757,2.811,41.882l.116,1.286a1.016,1.016,0,0,1-.876,1.1l-1.225.165-2.186.3-1.678.233a1.01,1.01,0,0,1-1.065-.612.922.922,0,0,1-.067-.2c-1.176-5.327-7.127-32.4-8.37-39.727-1.378-8.132-3.888-28.424.716-41.27a61.707,61.707,0,0,0,2.535-9.92,122.632,122.632,0,0,0,1.659-21.382s.839.208,2.278.508c.82.171,1.837.367,3.013.569a90.725,90.725,0,0,0,9.326,1.133c1.482.1,3,.159,4.531.159a39.1,39.1,0,0,0,10.715-1.3,126.957,126.957,0,0,0,4.06,22.95q.263.949.545,1.9C880.984,505.88,881.094,516.583,880.169,526.839Z" transform="translate(-175.987 -106.311)" fill="url(#linear-gradient-57)"/>
      <path id="Path_2343" data-name="Path 2343" d="M772.387,460.023a14.243,14.243,0,0,1-7.672.306c-4.451-.974-7.617-.514-7.262,1.127s3.833,1.537,5.474,1.537c1.108,0,4.231,2.015,6.123,3.313a4.831,4.831,0,0,0,3.472.784l1.341-.208S774.279,462.583,772.387,460.023Z" transform="translate(-144.934 -101.326)" fill="url(#linear-gradient-58)"/>
      <path id="Path_2344" data-name="Path 2344" d="M833.326,398.692s-6.442-1.1-14.726,10.207-19.227,23.782-39.58,26.942a10.367,10.367,0,0,1,1.837,8.125s32.073-2.357,40.094-12.932c5.627-16.263,9.8-27.83,9.8-27.83Z" transform="translate(-153.306 -77.615)" fill="url(#linear-gradient-59)"/>
      <path id="Path_2345" data-name="Path 2345" d="M868.568,454.661s-12.608,1.837-16.728-2.021c.306-11.481,6.123-40.413,6.123-40.413L859.9,407.2h6.123l6.576,5.009Z" transform="translate(-181.537 -80.925)" fill="url(#linear-gradient-60)"/>
      <path id="Path_2346" data-name="Path 2346" d="M882.114,399.35s11.071,4.807,15.161,10.177c1.329,6.735-.386,11.352-2.939,23.525s-4.807,26.385,1.757,33.439c0,0-14.218,7.348-22.6,1.225,0,0-1.127-7.262-.919-22.2s1.806-30.573,6.019-38.46C881.348,400.63,882.114,399.35,882.114,399.35Z" transform="translate(-189.565 -77.882)" fill="url(#linear-gradient-61)"/>
      <path id="Path_2347" data-name="Path 2347" d="M859.718,398.952s-5.933,10.691-7.464,30.328-1.433,36.2-1.433,36.2a8.135,8.135,0,0,1-9-2.247s1.127-10.942,2.247-19.741-2.149-17.7,1.127-25.362,9.8-18.59,12.479-19.594C860.649,397.88,859.718,398.952,859.718,398.952Z" transform="translate(-177.652 -77.484)" fill="url(#linear-gradient-62)"/>
      <path id="Path_2348" data-name="Path 2348" d="M870.813,403.346l-6.613,2.939s2.449-6.735,3.307-7.93a2.774,2.774,0,0,1,2.266-1.1Z" transform="translate(-186.329 -77.071)" fill="url(#linear-gradient-63)"/>
      <path id="Path_2349" data-name="Path 2349" d="M875,403.342l4.837,4.758,4.029-8.1a1.568,1.568,0,0,0-.135-1.623,2.351,2.351,0,0,0-2.2-1.121C879.127,399.3,875,403.342,875,403.342Z" transform="translate(-190.516 -77.067)" fill="url(#linear-gradient-64)"/>
      <path id="Path_2350" data-name="Path 2350" d="M880.285,384.57s.306,7.874.355,8.572-5.652,6.24-6.84,5.113-1.549-3.631-.937-5.37.049-4.9.049-4.9Z" transform="translate(-189.574 -72.152)" fill="url(#linear-gradient-65)"/>
      <path id="Path_2351" data-name="Path 2351" d="M907.932,416.077a3.092,3.092,0,0,0-3.411-.312c-2.412,1.3-7,5.027-7.072,14.512-.1,12.859,6.037,18.308,9.8,37.841s3.784,20.457,3.784,20.457,3.582,2.18,6.037-.276c0,0,.386-30.616-1.433-48.1C913.92,423.522,910.228,417.944,907.932,416.077Z" transform="translate(-199.218 -84.101)" fill="url(#linear-gradient-66)"/>
      <path id="Path_2352" data-name="Path 2352" d="M928.193,556.9l-2.627-.08.227-7.244-15.308-.612-.4,7.1-2.621-.153.41-7.1a2.633,2.633,0,0,1,2.719-2.449l15.308.612a2.627,2.627,0,0,1,2.51,2.694Z" transform="translate(-203.1 -134.874)" fill="url(#linear-gradient-67)"/>
      <rect id="Rectangle_162" data-name="Rectangle 162" width="46.842" height="30.683" rx="15.342" transform="matrix(1, 0.031, -0.031, 1, 691.709, 420.145)" fill="url(#linear-gradient-68)"/>
      <path id="Path_2353" data-name="Path 2353" d="M6.2,0H40.658a6.19,6.19,0,0,1,6.19,6.191h0a9.148,9.148,0,0,1-9.13,9.148H9.154A9.148,9.148,0,0,1,0,6.191H0A6.19,6.19,0,0,1,6.19,0Z" transform="matrix(1, 0.031, -0.031, 1, 691.709, 420.146)" fill="url(#linear-gradient-69)"/>
      <rect id="Rectangle_163" data-name="Rectangle 163" width="13.979" height="4.978" rx="2.489" transform="matrix(1, 0.031, -0.031, 1, 707.734, 433.505)" fill="#d4f0f9"/>
      <path id="Path_2354" data-name="Path 2354" d="M917.965,545.787a4.48,4.48,0,0,1-.288-4.286s-1.114,2.639-2.168,1.892c-1.874-1.329.22-2.866.992-4.194a35.278,35.278,0,0,0,1.837-5.676l4.843-.612a10.936,10.936,0,0,0,1.023,4.5,10.409,10.409,0,0,1,.459,7.85,1.053,1.053,0,0,1-1.61.539s-.9.612-1.543,0c0,0-1.139.612-1.69.1C919.8,545.91,918.676,546.693,917.965,545.787Z" transform="translate(-205.927 -129.661)" fill="url(#linear-gradient-70)"/>
      <path id="Path_2355" data-name="Path 2355" d="M860.354,369.144l1.072,1.978s-.41,10.073,1.892,11.352,11.867-4.451,11.867-4.451l1.69-.765,1.433-2.559-3.172-6.123-12.118-3.784S860.164,367.686,860.354,369.144Z" transform="translate(-184.834 -64.484)" fill="url(#linear-gradient-71)"/>
      <path id="Path_2356" data-name="Path 2356" d="M860.331,368.269s-.821-3.735,2-5.009c0,0,1.586,9,6.288,9.8s5.511-3.888,5.511-3.888a2.933,2.933,0,0,1,1.739,2.762,4.862,4.862,0,0,1-1.788,3.276s3.674.306,4.243-2.559-2-3.986-1.378-6.191.821-6.852-3.478-8.334-6.19,1.892-8.952,0-6.5.282-6.956,4.4C857.055,367.094,860.331,368.269,860.331,368.269Z" transform="translate(-183.733 -61.631)" fill="url(#linear-gradient-72)"/>
      <path id="Path_2357" data-name="Path 2357" d="M947.349,336.074c-8.389,1.635-11.934-4.5-18.137-3s-8.248,10.262-17.39,12.491-13.367-9.5-21.615-5.743L888.18,337.9l-3.6-3.4s.974-8.572,10.33-7.721,14.047.974,19.294-8.37,20.819-19.912,34.982-11.181a16.325,16.325,0,0,1,6.552,7.17C959.846,323.509,953.821,334.806,947.349,336.074Z" transform="translate(-194.23 -40.904)" fill="url(#linear-gradient-73)"/>
      <path id="Path_2358" data-name="Path 2358" d="M949.617,342.676c-8.389,1.635-11.934-4.5-18.137-3s-8.248,10.262-17.39,12.491-13.367-9.5-21.615-5.743l-2.027-1.917a2.562,2.562,0,0,1,0-.612,12.324,12.324,0,0,1,12.136,0c6.815,3.545,10.366,4.5,16.024-3.343s13.471-10.569,21.89-6.2c8.009,4.17,18.443,3.8,17.524-13.348C962.114,330.111,956.089,341.408,949.617,342.676Z" transform="translate(-196.498 -47.507)" fill="url(#linear-gradient-74)"/>
      <path id="Path_2359" data-name="Path 2359" d="M881.815,356.556a2.511,2.511,0,0,1-.612-2.406,3.148,3.148,0,0,1,1.463-1.91c2.045-1.225,5.627,1.3,6.736,4.09.918,2.345.22,5-1.837,5.052a2.449,2.449,0,0,1-1.837-.772Z" transform="translate(-192.886 -59.495)" fill="url(#linear-gradient-75)"/>
      <path id="Path_2360" data-name="Path 2360" d="M755.262,475.058s-.747-1.647-1.941-1.476-1.09,2.486-.514,4.286,2.627,2.725,2.866.851a14.138,14.138,0,0,0-.41-3.662Z" transform="translate(-142.982 -106.656)" fill="url(#linear-gradient-76)"/>
      <path id="Path_2361" data-name="Path 2361" d="M760.485,480.679s-1.176,1.372-2.339.214-1.323-2.7-1.494-4.9,1.408-1.721,2.3-.569.851,1.733.851,1.733Z" transform="translate(-144.629 -106.998)" fill="url(#linear-gradient-77)"/>
      <path id="Path_2362" data-name="Path 2362" d="M764.585,482.27a1.6,1.6,0,0,1-2.5-.7c-.821-1.874-1.194-5.217-.239-5.511s2.112,2.18,2.112,2.18S764.867,481.786,764.585,482.27Z" transform="translate(-146.427 -107.61)" fill="url(#linear-gradient-78)"/>
      <path id="Path_2363" data-name="Path 2363" d="M767.089,483.68c1.592-.073,1.072-2.045.563-3.986s-2.149-3.019-2.351-1.176S765.963,483.729,767.089,483.68Z" transform="translate(-147.976 -108.205)" fill="url(#linear-gradient-79)"/>
      <path id="Path_2364" data-name="Path 2364" d="M871.943,530.253c-.055.1-1.084,2.768-2.37,6.478-.747-8.652.68-21.731.68-21.731A135.7,135.7,0,0,0,871.943,530.253Z" transform="translate(-188.328 -122.718)" fill="#2c3bd1"/>
      <path id="Path_2365" data-name="Path 2365" d="M811.33,485.519l-2.682,1.384-3.821-7.4-15.736,7.954,3.557,7.348-2.719,1.31-3.558-7.348a3.025,3.025,0,0,1,1.353-4l15.755-7.96a3.019,3.019,0,0,1,4.035,1.3Z" transform="translate(-156.041 -107.785)" fill="url(#linear-gradient-80)"/>
      <rect id="Rectangle_164" data-name="Rectangle 164" width="53.89" height="35.3" rx="17.65" transform="translate(620.207 393.857) rotate(-25.55)" fill="url(#linear-gradient-81)"/>
      <path id="Path_2366" data-name="Path 2366" d="M7.434,0H46.463A7.434,7.434,0,0,1,53.9,7.434h0A10.22,10.22,0,0,1,43.67,17.671H10.22A10.22,10.22,0,0,1,0,7.452H0A7.434,7.434,0,0,1,7.434.018Z" transform="translate(620.202 393.854) rotate(-25.55)" fill="url(#linear-gradient-82)"/>
      <rect id="Rectangle_165" data-name="Rectangle 165" width="16.079" height="5.725" rx="2.863" transform="translate(643.636 399.04) rotate(-25.55)" fill="#d4f0f9"/>
      <path id="Path_2367" data-name="Path 2367" d="M799.421,488.06s-1.506-.441-2.076.441,1.016,2.131,2.51,2.762,3.288-.178,2.192-1.4A12.3,12.3,0,0,0,799.421,488.06Z" transform="translate(-160.364 -112.231)" fill="url(#linear-gradient-83)"/>
      <path id="Path_2368" data-name="Path 2368" d="M806.01,487.9s.233,1.555-1.188,1.659-2.529-.667-4.084-1.837-.331-1.9.931-1.837a2.661,2.661,0,0,1,1.623.423Z" transform="translate(-161.442 -111.429)" fill="url(#linear-gradient-84)"/>
      <path id="Path_2369" data-name="Path 2369" d="M809.4,486.259a1.372,1.372,0,0,1-1.886,1.225c-1.7-.551-4.109-2.18-3.772-2.988s2.639-.147,2.639-.147S809.238,485.794,809.4,486.259Z" transform="translate(-162.877 -110.736)" fill="url(#linear-gradient-85)"/>
      <path id="Path_2370" data-name="Path 2370" d="M811.739,485.439c.857-1.09-.735-1.868-2.3-2.639s-3.209-.306-2.113.876S811.127,486.211,811.739,485.439Z" transform="translate(-164.141 -110.087)" fill="url(#linear-gradient-86)"/>
      <circle id="Ellipse_28" data-name="Ellipse 28" cx="15.479" cy="15.479" r="15.479" transform="translate(402.739 236.228)" opacity="0.65" fill="url(#linear-gradient-87)"/>
      <circle id="Ellipse_29" data-name="Ellipse 29" cx="14.965" cy="14.965" r="14.965" transform="translate(808.105 441.794)" opacity="0.65" fill="url(#linear-gradient-88)"/>
      <circle id="Ellipse_30" data-name="Ellipse 30" cx="7.421" cy="7.421" r="7.421" transform="translate(730.23 382.755)" opacity="0.65" fill="url(#linear-gradient-89)"/>
      <circle id="Ellipse_31" data-name="Ellipse 31" cx="13.465" cy="13.465" r="13.465" transform="translate(385.741 410.095)" opacity="0.65" fill="url(#linear-gradient-90)"/>
      <circle id="Ellipse_32" data-name="Ellipse 32" cx="10.575" cy="10.575" r="10.575" transform="translate(637.318 273.499)" opacity="0.65" fill="url(#linear-gradient-91)"/>
      <circle id="Ellipse_33" data-name="Ellipse 33" cx="6.913" cy="6.913" r="6.913" transform="translate(392.293 334.633)" opacity="0.65" fill="url(#linear-gradient-92)"/>
      <circle id="Ellipse_34" data-name="Ellipse 34" cx="6.913" cy="6.913" r="6.913" transform="translate(625.733 441.549)" opacity="0.65" fill="url(#linear-gradient-93)"/>
      <circle id="Ellipse_35" data-name="Ellipse 35" cx="6.913" cy="6.913" r="6.913" transform="translate(556.614 204.234)" opacity="0.65" fill="url(#linear-gradient-94)"/>
    </g>
  </g>
</svg>
