<svg id="Layer_1" data-name="Layer 1" xmlns="http://www.w3.org/2000/svg" viewBox="0 0 286 480"><defs><style>.cls-1,.cls-2,.cls-3,.cls-4{fill:none;stroke:#192965;stroke-miterlimit:10;stroke-width:2px;}.cls-2{stroke-dasharray:10.01 10.01;}.cls-3{stroke-dasharray:11.69 11.69;}.cls-4{stroke-dasharray:8.55 8.55;}</style></defs><title>Todoless-landing  UI</title><path class="cls-1" d="M55.47,427.18c1.2,1.13,2.43,2.26,3.69,3.36"/><path class="cls-2" d="M66.92,436.87c42.23,32.08,109.33,47.2,155.32,14.82,56-37.66,34.46-134.48-29.72-151-53.66-14.23-89.89,41.26-33,63.8,68.48,27.6,113.32-48.06,102.94-106.87C249.88,186.4,150.1,100.45,109.37,160.87c-35.59,48.87,24.65,79,88.87,38.81C294.78,139.27,189.4,11.41,77.53,45.75c-11.67,3.58-26.11,9.76-37.45,17.7"/><path class="cls-1" d="M36.06,66.44c-1.33,1.06-2.6,2.14-3.79,3.25"/><path class="cls-1" d="M88.68,82.86q-2.39-.8-4.78-1.49"/><path class="cls-3" d="M72.55,78.59c-13.42-2.72-27-3.64-40.64-4.18"/><path class="cls-1" d="M26.06,74.2l-5-.16c.95-1.35,1.89-2.72,2.82-4.13"/><path class="cls-4" d="M28.4,62.65A269.08,269.08,0,0,0,48.18,20.06"/><path class="cls-1" d="M49.64,16c.56-1.57,1.11-3.15,1.64-4.72"/></svg>